<svg xmlns="http://www.w3.org/2000/svg" xmlns:xlink="http://www.w3.org/1999/xlink" viewBox="0 0 116.3 22.75"><defs><style>.cls-1{fill:#231f20;}</style><symbol id="New_Symbol" data-name="New Symbol" viewBox="0 0 116.3 22.75"><path class="cls-1" d="M28.58,4.65V2.13A1.62,1.62,0,0,1,30.24.29,1.65,1.65,0,0,1,32,2.08h-.69c-.06-.77-.41-1.13-1-1.13s-.95.37-.95,1.18V4.65c0,.79.4,1.17,1,1.17s1-.37,1-1.12H32a1.66,1.66,0,0,1-1.74,1.78A1.62,1.62,0,0,1,28.58,4.65Z"/><path class="cls-1" d="M32.72,4.5V2.27a1.78,1.78,0,1,1,3.54,0V4.5c0,1.23-.66,2-1.76,2A1.74,1.74,0,0,1,32.72,4.5Zm2.82,0V2.27c0-.83-.35-1.29-1-1.29s-1.06.46-1.06,1.29V4.5c0,.83.36,1.3,1.06,1.3S35.54,5.33,35.54,4.5Z"/><path class="cls-1" d="M36.79.4h.74l.81,3.51c.13.57.22,1.08.32,1.55h0c.09-.47.19-1,.32-1.55L39.82.4h.74l-1.49,6h-.78Z"/><path class="cls-1" d="M42,.4v6h-.7V.4Z"/><path class="cls-1" d="M43.21.4h1.42a1.66,1.66,0,0,1,1.81,1.81V4.57a1.65,1.65,0,0,1-1.8,1.8H43.21Zm1.43,5.31a1,1,0,0,0,1.1-1.17V2.23a1,1,0,0,0-1.1-1.16h-.73V5.71Z"/><path class="cls-1" d="M47.18,3.88h2.08v.6H47.18Z"/><path class="cls-1" d="M51.44.4V6.34h-.67v-5L49.83,2V1.23l1-.83Z"/><path class="cls-1" d="M55.34,1.85V5a1.42,1.42,0,0,1-1.46,1.51A1.44,1.44,0,0,1,52.44,5h.68a.77.77,0,0,0,.76.82A.76.76,0,0,0,54.67,5V4a1.19,1.19,0,0,1-.88.36,1.4,1.4,0,0,1-1.38-1.49v-1a1.47,1.47,0,1,1,2.93,0Zm-.67,1v-1a.8.8,0,1,0-1.59,0v1a.8.8,0,0,0,.82.86A.78.78,0,0,0,54.67,2.81Z"/><path class="cls-1" d="M34.54,20.41h-3l-.46,2.34h-3L31.51,8.61h3.07L38,22.75H35ZM34,17.68l-.32-1.61c-.18-1-.42-2.73-.56-3.88H33c-.14,1.15-.36,2.87-.56,3.88l-.32,1.61Z"/><path class="cls-1" d="M46,11.34H43.24V22.75h-3V11.34H37.53V8.61H46Z"/><path class="cls-1" d="M51,17.4l-.79,1.27v4.08H47.36V8.61h2.83V14l.73-1.58,2-3.84h3.28l-3.6,6.18,4.2,8H53.54Z"/><path class="cls-1" d="M72.27,7.87c0,4.66-2.69,7.41-7.22,7.41h-1.9v7H58.71V.44h6.34C69.58.44,72.27,3.19,72.27,7.87Zm-4.56,0c0-2.12-.94-3.21-2.72-3.21H63.15v6.4H65C66.77,11.06,67.71,10,67.71,7.87Z"/><path class="cls-1" d="M81.68,18.69H77.05l-.72,3.62H71.74L77,.44h4.75L87,22.31H82.4Zm-.88-4.22L80.3,12c-.28-1.56-.65-4.22-.87-6H79.3c-.22,1.78-.56,4.44-.87,6l-.5,2.5Z"/><path class="cls-1" d="M87.68,15.94h4.56c0,1.75.87,2.5,2.28,2.5a1.92,1.92,0,0,0,2.19-1.94c0-3.63-8.56-4.06-8.56-10.72C88.15,2.44,90.49,0,94.52,0S101,2.41,101,6.44H96.43c0-1.44-.66-2.16-1.94-2.16s-1.84.63-1.84,1.63c0,3.43,8.68,3.65,8.68,10.62,0,3.59-2.53,6.22-6.87,6.22C90.3,22.75,87.68,20.34,87.68,15.94Z"/><path class="cls-1" d="M102.65,15.94h4.56c0,1.75.87,2.5,2.28,2.5a1.92,1.92,0,0,0,2.19-1.94c0-3.63-8.57-4.06-8.57-10.72,0-3.34,2.35-5.78,6.38-5.78S116,2.41,116,6.44h-4.57c0-1.44-.65-2.16-1.93-2.16s-1.85.63-1.85,1.63c0,3.43,8.69,3.65,8.69,10.62,0,3.59-2.53,6.22-6.87,6.22C105.27,22.75,102.65,20.34,102.65,15.94Z"/><path d="M10.33,11.83l1.05-1.06L14.12,8l3-3L19,3.11a1.05,1.05,0,0,1,1.55,0l1.47,1.47a1.06,1.06,0,0,1,0,1.56L19.28,8.9l-2.59,2.58-2.9,2.9c-.88.88-1.77,1.76-2.64,2.65a1.12,1.12,0,0,1-1.62,0C8,15.45,6.4,13.89,4.83,12.33l-1-1a1.06,1.06,0,0,1,0-1.54c.48-.49,1-1,1.46-1.46a1.08,1.08,0,0,1,1.63,0l3.36,3.35S10.28,11.77,10.33,11.83Z"/><path d="M0,11.38V5.82A3.69,3.69,0,0,1,.42,4,3.89,3.89,0,0,1,3.1,2a3,3,0,0,1,.74-.07q5.67,0,11.35,0a3.48,3.48,0,0,1,1.45.32.43.43,0,0,1,.13.71l-.65.66a.45.45,0,0,1-.44.11,3.29,3.29,0,0,0-.63-.07H3.82a2.1,2.1,0,0,0-2,1.72,8.28,8.28,0,0,0-.06,1.32c0,1.32,0,2.63,0,3.94v6.34a2.17,2.17,0,0,0,1.8,2.16,1.71,1.71,0,0,0,.39,0H15a2.15,2.15,0,0,0,2.15-1.68,1.93,1.93,0,0,0,.05-.42v-3.4a.54.54,0,0,1,.17-.42l.77-.77a.43.43,0,0,1,.52-.14.44.44,0,0,1,.27.46c0,1.44,0,2.88,0,4.32a3.61,3.61,0,0,1-1.19,2.68,3.63,3.63,0,0,1-2,1,6.32,6.32,0,0,1-.75.06H4.72c-.42,0-.84,0-1.25,0a3.56,3.56,0,0,1-1.85-.7A3.79,3.79,0,0,1,.1,17.86,4.37,4.37,0,0,1,0,16.91C0,15.07,0,13.22,0,11.38Z"/></symbol></defs><g id="Layer_2" data-name="Layer 2"><g id="Layer_2-2" data-name="Layer 2"><use width="116.3" height="22.75" xlink:href="#New_Symbol"/></g></g></svg>