<svg xmlns="http://www.w3.org/2000/svg" xmlns:xlink="http://www.w3.org/1999/xlink" viewBox="0 0 281.03 296.88"><defs><style>.cls-1{fill:none;}.cls-2{clip-path:url(#clip-path);}.cls-3{fill:#d5dc51;}.cls-4,.cls-5{stroke:#000;stroke-miterlimit:10;}.cls-4{stroke-width:1.58px;}.cls-5{stroke-width:1.73px;}.cls-6{fill:#595857;}</style><clipPath id="clip-path" transform="translate(-14.9 -13.85)"><rect class="cls-1" width="315.04" height="296"/></clipPath></defs><g id="Layer_2" data-name="Layer 2"><g id="Layer_1-2" data-name="Layer 1"><g class="cls-2"><path class="cls-3" d="M27.47,309.28s5.62-23.44,12.92-31.45,21.19-14.2,33.23-19,34.74-12.34,41.05-15.8c4-2.2,5.56-4.18,7.87-3.91s4.31,5.37,9.75,11.82c9,10.69,19.78,16.72,38,17.4,16,.6,26.17-4,34.07-11.35,5.15-4.8,8.64-10.08,11-11.15s4.34.72,8.59,3.34a162.74,162.74,0,0,0,28.51,13.53c10.52,3.73,18.17,7.49,24.92,12.55s9.15,15.29,10.51,21.92Z" transform="translate(-14.9 -13.85)"/><path d="M135.79,188.84c0-.24,0-.48,0-.72" transform="translate(-14.9 -13.85)"/><path class="cls-4" d="M131.17,188.68c-.1,1.51-.17,3.22-.24,5-.25,5.79-.53,12.36-1.57,16.35-1.47,5.67-2.78,9.17-5.82,12.54a1.78,1.78,0,0,0,.48,2.79,2.69,2.69,0,0,0,1.43.4,2.56,2.56,0,0,0,1.92-.8c3.91-4.33,5.34-8.95,6.67-14.09,1.13-4.34,1.42-11.09,1.67-17,0-.56,0-1.11.08-1.66" transform="translate(-14.9 -13.85)"/><path class="cls-5" d="M210.36,228.11c-2.16-6.27-3.5-10.53-3.8-18.55l0-.94a52.05,52.05,0,0,1,.48-11.37,2.4,2.4,0,0,0-4.74-.72,56.86,56.86,0,0,0-.53,12.28l0,.93c.32,8.53,1.75,13.22,4.06,19.93.47,1.35.92,2.5,1.32,3.51,1.47,3.68,2,4.92.25,8-2.74,4.94-12.24,16-24.16,18.56-11,2.38-19.74,1.72-30-2.3-10.14-4-20.35-16.42-23.82-23.89a2.4,2.4,0,0,0-4.35,2c4.37,9.41,15.72,22.16,26.43,26.33a52.8,52.8,0,0,0,22.35,3.94,63.3,63.3,0,0,0,10.44-1.42c14.61-3.15,24.89-16.5,27.34-20.92,2.81-5.09,1.58-8.19,0-12.11C211.22,230.44,210.79,229.35,210.36,228.11Z" transform="translate(-14.9 -13.85)"/><path class="cls-6" d="M99.91,105.3c.7-6.33.82-16.4-.47-23.43C98,74.1,99,68.24,102.37,62c3.63-6.79,15.18-21.77,28.35-28.48S158.31,23.05,169,23.05s20.88,2,25.6,7.7c6.21-2.73,11.59-2.53,16.9-.25A36.93,36.93,0,0,1,229,46.5c4.36,7.68,9.49,21,10.6,31.71-1,7-1.81,19.24-1,27.59a15.67,15.67,0,0,0-8.9,7.34c-.71-8.08-3.53-20.51-4.52-25A32.7,32.7,0,0,1,218.32,75c-1.3-4.94-1.58-11.65-2-16.31-5.21,3.73-9.59,6.15-15.56,7.4s-16.65.49-22.11-2.74c-8,4.48-13.67,6.46-18.89,7.21s-11.93,0-15.66-2.24a36.56,36.56,0,0,1-16.15,8,91.32,91.32,0,0,1-4,16c-.74,2.23-2.75,4.92-4.49,7.16a21.8,21.8,0,0,0-4,7.2,58.41,58.41,0,0,0-2.48,13.86C110.1,113.69,105.06,104.83,99.91,105.3Z" transform="translate(-14.9 -13.85)"/><path d="M216.15,56.41a2.76,2.76,0,0,0-3.9-.26c-6.78,5.93-14.47,7.81-25.74,6.28a2.77,2.77,0,0,0-.75,5.48,56.71,56.71,0,0,0,7.67.55c9,0,16.15-2.62,22.46-8.15A2.76,2.76,0,0,0,216.15,56.41Z" transform="translate(-14.9 -13.85)"/><path d="M189.17,59a2.76,2.76,0,1,0-3.06-4.6c-13.92,9.27-25.17,13.18-35.47,12.28a2.77,2.77,0,0,0-.48,5.51c1.12.1,2.25.15,3.38.15C164.18,72.29,175.61,68,189.17,59Z" transform="translate(-14.9 -13.85)"/><path d="M121.27,183.89c.15.22.3.43.46.64,2.83,3.9,7,6.54,10.37,9.94a71.44,71.44,0,0,0,13.32,10.14c9.68,6,18.52,6,27.07,6,9.44,0,16.35-.94,23.72-5.74,7.67-5,15.76-12.8,21.19-18.22,6.68-6.68,9.93-13.47,9.93-20.74a88.4,88.4,0,0,1,.67-9,8,8,0,0,0,1.43.15,9.38,9.38,0,0,0,5.52-2c4.66-3.34,5.82-9.44,6.37-15.53l.12-1.33a108,108,0,0,1,2.34-16.43c2-8.39,1.24-13.83-2.22-16.62s-6.9-.46-10.12,3.12a166.52,166.52,0,0,0-3.61-18.8L227.25,87a3,3,0,0,0-.44-1c-1.59-2.38-5.21-12.8-4.74-21.32a3.11,3.11,0,0,0-6.21-.35c-.52,9.38,3.16,20.65,5.45,24.6l.46,2c1.53,6.48,3.85,16.28,3.85,23.89a3.11,3.11,0,0,0,6.22,0c0-.17,0-.36,0-.53,3.44-4.26,5.81-7,7.14-5.88,2,1.62,2.28,6,.78,12.45a113.11,113.11,0,0,0-2.43,17l-.12,1.32c-.63,7-2,10.62-4.65,12.53-1.79,1.28-2.89,1.37-4,1.14.11-.93.23-1.85.34-2.75.41-3.2.8-6.23,1-8.47a3.11,3.11,0,1,0-6.2-.51c-.18,2.1-.56,5.06-1,8.19a155.06,155.06,0,0,0-1.56,16.62c0,5.61-2.58,10.81-8.11,16.34-5.23,5.23-13,12.72-20.19,17.41-6.14,4-11.66,4.73-20.32,4.73-9.44,0-16.19-.35-23.81-5.05a108.72,108.72,0,0,1-17.15-13.55l-.19-.18c-3.8-3.52-8.6-9.55-9.61-15a2.73,2.73,0,0,0-.2-.65c-.34-7.68-1.22-16-1.72-20.73l-.23-2.22a3.11,3.11,0,1,0-6.19.62l.24,2.25c.13,1.3.3,2.87.47,4.61l-.19.07a5.87,5.87,0,0,1-5.27.82c-1.83-.63-4-3.88-6.31-9.67a41.36,41.36,0,0,1-2.82-12.62c-.23-2.32-.66-4.9-1.11-7.63-.87-5.2-1.85-11.1-1.09-14.35a3.6,3.6,0,0,1,2.23-2.73,3.56,3.56,0,0,1,3.4.74c2.64,2.12,6.31,9.48,8.16,13.43l.49,1.07a2.47,2.47,0,0,0,3.08,1.14,2.27,2.27,0,0,0,1.39-2.09c.26-2.9,1.55-11.38,1.82-14.19.21-2.36,2-4.7,3.92-7.17.59-.77,1.18-1.53,1.73-2.3,2.21-3.1,4.08-9.6,6.16-21.55,7.94-1.47,14.3-7.35,20.47-13a3.11,3.11,0,1,0-4.22-4.57c-6.28,5.79-12.21,11.27-19.13,11.7a3.12,3.12,0,0,0-2.87,2.6c-2,11.76-3.8,18.91-5.48,21.25-.5.71-1,1.41-1.58,2.11-2.26,2.92-4.81,6.24-5.2,10.39-.11,1.21-.3,3.31-.5,5.55-1.79-3.22-3.7-6-5.65-7.57a7.63,7.63,0,0,0-7.35-1.41,7.76,7.76,0,0,0-4.91,5.7c-1,4.06.06,10.12,1,16,.44,2.66.86,5.17,1.07,7.35a45.83,45.83,0,0,0,3.11,13.78c3,7.34,5.62,10.94,8.8,12a9.6,9.6,0,0,0,3.14.54,9.91,9.91,0,0,0,4.09-.93c.38,4.23-.36,9.41.78,13.48C116.36,176.18,118.94,180.59,121.27,183.89Z" transform="translate(-14.9 -13.85)"/><path d="M204.13,25.73c1.22-.37,5.39.46,9.72,2.94C219.6,32,227.11,38.74,231,46.5a91.67,91.67,0,0,1,8.64,31.59c-1.89,4.15-2.59,10.87-3.18,18-.09,1.07-.17,2-.25,2.85a3.12,3.12,0,0,0,2.78,3.41h.32a3.1,3.1,0,0,0,3.09-2.8c.08-.84.17-1.84.26-3,.41-4.94,1.1-13.21,2.87-16.39a3.11,3.11,0,0,0,.38-1.77,98.3,98.3,0,0,0-9.33-34.7c-4.73-9.55-13.51-17-19.59-20.47-4.18-2.39-10.52-4.74-14.63-3.48a3.11,3.11,0,1,0,1.82,5.94Z" transform="translate(-14.9 -13.85)"/><path d="M95.34,99.74a3.11,3.11,0,0,0,6.22,0A85.59,85.59,0,0,0,99.38,80a23.48,23.48,0,0,1,.24-14c2-6.41,5.33-12.08,12.29-20.89,8.28-10.49,22.06-16.9,29.53-19.78a86.2,86.2,0,0,1,32.31-5.13c10.88.49,14.44,1.28,17.33,3.81a3.11,3.11,0,1,0,4.1-4.67c-4.48-3.93-9.43-4.82-21.14-5.35a91.38,91.38,0,0,0-34.84,5.53c-8.07,3.12-23,10.08-32.17,21.73-7.48,9.48-11.1,15.69-13.35,22.9a30,30,0,0,0-.33,17.41A78.88,78.88,0,0,1,95.34,99.74Z" transform="translate(-14.9 -13.85)"/><path d="M192.9,118.92a4.26,4.26,0,1,0,4.26-4.26A4.26,4.26,0,0,0,192.9,118.92Z" transform="translate(-14.9 -13.85)"/><path d="M141,119a4.26,4.26,0,1,0,4.26-4.25A4.26,4.26,0,0,0,141,119Z" transform="translate(-14.9 -13.85)"/><path d="M211.44,103.15a2.77,2.77,0,0,0,1.16-5.28c-7.11-3.28-18.8-5.61-25.26-3.64A2.76,2.76,0,0,0,189,99.52c5-1.52,15.24.56,21.33,3.37A2.68,2.68,0,0,0,211.44,103.15Z" transform="translate(-14.9 -13.85)"/><path d="M153.31,97.48a2.76,2.76,0,0,0-2.51-3c-6.1-.53-17.55,1.1-23.14,5.54a2.76,2.76,0,0,0,1.72,4.93,2.79,2.79,0,0,0,1.72-.6c3.85-3.06,13.5-4.86,19.22-4.36A2.77,2.77,0,0,0,153.31,97.48Z" transform="translate(-14.9 -13.85)"/><path d="M168.8,144.29a1.06,1.06,0,0,0,.25,0,2.07,2.07,0,0,0,2.06-1.82,80.82,80.82,0,0,0,0-19.62,2.08,2.08,0,0,0-4.1.65A77.09,77.09,0,0,1,167,142,2.06,2.06,0,0,0,168.8,144.29Z" transform="translate(-14.9 -13.85)"/><path d="M155,167.49c3.5,1.75,9.15,1.71,14.12,1.67,1.41,0,2.7,0,4.06,0l2.22,0c4,0,8.27-.25,12-2.06a2.09,2.09,0,0,0,1-2.78,2.06,2.06,0,0,0-2.77-.95c-3.56,1.73-8,1.68-12.37,1.62-1.38,0-2.7,0-4.13,0-4.28,0-9.62.07-12.24-1.24a2.07,2.07,0,0,0-1.85,3.71Z" transform="translate(-14.9 -13.85)"/><path class="cls-5" d="M118.46,230.09c-4.5,4.32-18.37,9.12-28.51,12.63-2.3.8-4.46,1.55-6.36,2.24-10,3.6-17.84,6.84-25.69,10.12A108.65,108.65,0,0,0,38.23,266c-6.58,4.61-12.86,13.13-15.64,21.21-2.54,7.39-4.67,14.7-6.58,22.62l5-.23c1.79-7.26,3.78-14,6.13-20.83,2.47-7.2,8-14.77,13.85-18.84A105.28,105.28,0,0,1,59.74,259.5c7.8-3.25,15.62-6.47,25.48-10,1.88-.68,4-1.42,6.3-2.21,11.14-3.86,25-8.66,30.26-13.71a2.39,2.39,0,1,0-3.32-3.45Z" transform="translate(-14.9 -13.85)"/><path d="M60.91,286.4a2.4,2.4,0,0,0-.69,3.32c3.15,4.79,5.12,11.44,6.38,17.74l4.86-.22c-1.35-7-3.52-14.5-7.23-20.16A2.4,2.4,0,0,0,60.91,286.4Z" transform="translate(-14.9 -13.85)"/><path class="cls-5" d="M288.65,277.42c-4.17-6.67-11-11.74-21.48-16l-5.42-2.16c-9.1-3.61-19.43-7.7-26.36-11.68l-.3-.18c-6.24-3.58-11.17-6.42-16.18-11.09a2.39,2.39,0,1,0-3.27,3.5c5.41,5.05,10.81,8.16,17.06,11.75l.3.17c7.24,4.16,17.73,8.32,27,12l5.39,2.14c9.5,3.83,15.61,8.3,19.21,14.06,3.21,5.14,4.49,10.22,5.52,17.13l4.82-.22C293.81,289.27,292.37,283.37,288.65,277.42Z" transform="translate(-14.9 -13.85)"/><path d="M258.33,288.73a2.39,2.39,0,0,0-2.28,2.5c.05,1.14.24,5.48.3,7.43l4.79-.22c-.05-1.81-.24-6.13-.3-7.43A2.4,2.4,0,0,0,258.33,288.73Z" transform="translate(-14.9 -13.85)"/></g></g></g></svg>